{
	"asset":{
		"generator":"Khronos glTF Blender I/O v4.0.44",
		"version":"2.0"
	},
	"extensionsUsed":[
		"EXT_texture_webp"
	],
	"scene":0,
	"scenes":[
		{
			"name":"Scene",
			"nodes":[
				23,
				47,
				48
			]
		}
	],
	"nodes":[
		{
			"mesh":0,
			"name":"hand",
			"rotation":[
				0,
				-0.7071066498756409,
				0,
				0.70710688829422
			],
			"scale":[
				-0.9999999403953552,
				-1.0000001192092896,
				-1
			],
			"translation":[
				0.07091444730758667,
				1.6109801530838013,
				-0.6299410462379456
			]
		},
		{
			"name":"Bone3.R",
			"rotation":[
				-0.168745756149292,
				0.0023761068005114794,
				-0.0025859365705400705,
				0.9856533408164978
			],
			"scale":[
				0.9999999403953552,
				1,
				0.9999998807907104
			],
			"translation":[
				-9.313225746154785e-09,
				0.03165339305996895,
				-3.259629011154175e-08
			]
		},
		{
			"children":[
				1
			],
			"name":"Bone2.R",
			"rotation":[
				0.11484280973672867,
				-0.0017011913005262613,
				-0.010079069063067436,
				0.9933310747146606
			],
			"scale":[
				1,
				0.9999999403953552,
				0.9999998807907104
			],
			"translation":[
				7.450580596923828e-09,
				0.03855935484170914,
				-1.210719347000122e-08
			]
		},
		{
			"children":[
				2
			],
			"name":"Bone1.R",
			"rotation":[
				0.0033579953014850616,
				0.733840823173523,
				0.013897783122956753,
				0.6791710257530212
			],
			"translation":[
				2.176966518163681e-08,
				0.03584570065140724,
				6.752088665962219e-09
			]
		},
		{
			"children":[
				3
			],
			"name":"Bone01.R",
			"rotation":[
				0.06448022276163101,
				-0.2447558045387268,
				-0.2660057842731476,
				0.9301493763923645
			],
			"scale":[
				1,
				1,
				0.9999999403953552
			],
			"translation":[
				-2.2351741790771484e-08,
				0.06952699273824692,
				-9.313225746154785e-09
			]
		},
		{
			"name":"Bone6.R",
			"rotation":[
				0.07988473027944565,
				0.0016274875961244106,
				0.07170190662145615,
				0.9942206144332886
			],
			"translation":[
				1.862645149230957e-09,
				0.023884642869234085,
				-4.423782229423523e-08
			]
		},
		{
			"children":[
				5
			],
			"name":"Bone5.R",
			"rotation":[
				-0.06003955006599426,
				-0.00012869211786892265,
				-0.011909158900380135,
				0.9981249570846558
			],
			"translation":[
				9.313225746154785e-09,
				0.030327992513775826,
				9.080395102500916e-09
			]
		},
		{
			"children":[
				6
			],
			"name":"Bone4.R",
			"rotation":[
				-0.047179900109767914,
				0.5649203062057495,
				0.059873804450035095,
				0.8216168284416199
			],
			"scale":[
				1.0000001192092896,
				1.0000001192092896,
				1.0000001192092896
			],
			"translation":[
				2.9802322387695312e-08,
				0.10831127315759659,
				-7.450580596923828e-09
			]
		},
		{
			"children":[
				7
			],
			"name":"Bone04.R",
			"rotation":[
				0.02847643941640854,
				-0.03276626393198967,
				-0.12233603745698929,
				0.9915388822555542
			],
			"scale":[
				0.9999997615814209,
				0.9999999403953552,
				0.9999999403953552
			],
			"translation":[
				-2.2351741790771484e-08,
				0.06952699273824692,
				-9.313225746154785e-09
			]
		},
		{
			"name":"Bone9.R",
			"rotation":[
				0.05200091376900673,
				-0.001913212239742279,
				0.11491093039512634,
				0.9920119643211365
			],
			"scale":[
				1.0000001192092896,
				0.9999998807907104,
				1.0000001192092896
			],
			"translation":[
				1.6763806343078613e-08,
				0.026652120053768158,
				1.1874362826347351e-08
			]
		},
		{
			"children":[
				9
			],
			"name":"Bone8.R",
			"rotation":[
				-0.017536239698529243,
				-0.0008207912323996425,
				-0.010265140794217587,
				0.9997932314872742
			],
			"scale":[
				0.9999999403953552,
				0.9999998807907104,
				0.9999998807907104
			],
			"translation":[
				1.6763806343078613e-08,
				0.03843463584780693,
				-6.658956408500671e-08
			]
		},
		{
			"children":[
				10
			],
			"name":"Bone7.R",
			"rotation":[
				-0.02000543475151062,
				-0.5790983438491821,
				-0.003869270207360387,
				0.8150030374526978
			],
			"scale":[
				0.9999999403953552,
				0.9999999403953552,
				1
			],
			"translation":[
				-3.166496753692627e-08,
				0.10644372552633286,
				-3.725290298461914e-09
			]
		},
		{
			"children":[
				11
			],
			"name":"Bone07.R",
			"rotation":[
				-0.00040587453986518085,
				0.9260700941085815,
				-0.020128237083554268,
				0.3768140971660614
			],
			"scale":[
				1,
				1.000000238418579,
				1
			],
			"translation":[
				-2.2351741790771484e-08,
				0.06952699273824692,
				-9.313225746154785e-09
			]
		},
		{
			"name":"Bone12.R",
			"rotation":[
				0.015082848258316517,
				-0.0026639746502041817,
				0.041933126747608185,
				0.9990030527114868
			],
			"scale":[
				1,
				0.9999999403953552,
				0.9999998807907104
			],
			"translation":[
				-9.313225746154785e-09,
				0.02604193612933159,
				-1.1990778148174286e-08
			]
		},
		{
			"children":[
				13
			],
			"name":"Bone11.R",
			"rotation":[
				0.0623595155775547,
				0.0018651001155376434,
				-0.006415992043912411,
				0.9980313777923584
			],
			"scale":[
				1,
				0.9999999403953552,
				1
			],
			"translation":[
				0,
				0.02889188379049301,
				-4.644971340894699e-08
			]
		},
		{
			"children":[
				14
			],
			"name":"Bone10.R",
			"rotation":[
				0.027952071279287338,
				0.8373032808303833,
				0.010446182452142239,
				0.5459238290786743
			],
			"scale":[
				0.9999999403953552,
				1,
				1
			],
			"translation":[
				-1.4435499906539917e-08,
				0.10599412769079208,
				-1.1175870895385742e-08
			]
		},
		{
			"children":[
				15
			],
			"name":"Bone010.R",
			"rotation":[
				-0.02477714978158474,
				-0.4127170145511627,
				0.10590941458940506,
				0.9043416976928711
			],
			"scale":[
				1,
				1,
				0.9999998807907104
			],
			"translation":[
				-2.2351741790771484e-08,
				0.06952699273824692,
				-9.313225746154785e-09
			]
		},
		{
			"name":"Bone15.R",
			"rotation":[
				0.06505925953388214,
				-0.0025641790125519037,
				0.026731569319963455,
				0.9975199699401855
			],
			"scale":[
				1,
				1.0000001192092896,
				1
			],
			"translation":[
				-1.7695128917694092e-08,
				0.0201603714376688,
				-7.566995918750763e-09
			]
		},
		{
			"children":[
				17
			],
			"name":"Bone14.R",
			"rotation":[
				0.09305398166179657,
				-0.002310735872015357,
				0.008219604380428791,
				0.9956244826316833
			],
			"scale":[
				1,
				1.0000001192092896,
				0.9999999403953552
			],
			"translation":[
				1.1175870895385742e-08,
				0.024879422038793564,
				-2.270098775625229e-08
			]
		},
		{
			"children":[
				18
			],
			"name":"Bone13.R",
			"rotation":[
				0.011143158189952374,
				0.783266007900238,
				0.03314489871263504,
				0.6207025647163391
			],
			"scale":[
				0.9999998807907104,
				0.9999998211860657,
				0.9999998211860657
			],
			"translation":[
				2.2118911147117615e-08,
				0.09898153692483902,
				9.313225746154785e-09
			]
		},
		{
			"children":[
				19
			],
			"name":"Bone013.R",
			"rotation":[
				-0.04778933897614479,
				-0.32280802726745605,
				0.1988154500722885,
				0.9241123199462891
			],
			"translation":[
				-2.2351741790771484e-08,
				0.06952699273824692,
				-9.313225746154785e-09
			]
		},
		{
			"children":[
				4,
				8,
				12,
				16,
				20
			],
			"name":"Bone",
			"rotation":[
				-0.16227348148822784,
				-0.6804847121238708,
				0.696165919303894,
				0.16112405061721802
			],
			"scale":[
				0.9999999403953552,
				0.9999998211860657,
				1
			],
			"translation":[
				-5.029141902923584e-08,
				0.019816812127828598,
				1.0337680578231812e-07
			]
		},
		{
			"children":[
				21
			],
			"name":"BoneR.R",
			"rotation":[
				-0.9999101758003235,
				-0.007151411380618811,
				-0.0033554970286786556,
				0.01082609687000513
			],
			"scale":[
				1.0000001192092896,
				1.0000001192092896,
				0.9999999403953552
			],
			"translation":[
				0.20372077822685242,
				0.1869291514158249,
				-0.012276827357709408
			]
		},
		{
			"children":[
				0,
				22
			],
			"name":"Armature",
			"rotation":[
				-0.009413930587470531,
				0.5300382375717163,
				0.043242886662483215,
				0.8468180894851685
			],
			"scale":[
				-137.37611389160156,
				-126.94539642333984,
				-137.37796020507812
			],
			"translation":[
				97.30278778076172,
				26.44293785095215,
				-65.34960174560547
			]
		},
		{
			"mesh":1,
			"name":"hand.001",
			"rotation":[
				0,
				-0.7071066498756409,
				0,
				0.70710688829422
			],
			"scale":[
				-1.0000001192092896,
				-1.0000001192092896,
				-1.0000001192092896
			],
			"translation":[
				0.07091444730758667,
				1.6109801530838013,
				-0.6299411058425903
			]
		},
		{
			"name":"Bone3.R",
			"rotation":[
				-0.1687457114458084,
				0.002376105636358261,
				-0.0025859412271529436,
				0.9856533408164978
			],
			"translation":[
				2.3283064365386963e-09,
				0.031653378158807755,
				2.2118911147117615e-08
			]
		},
		{
			"children":[
				25
			],
			"name":"Bone2.R",
			"rotation":[
				0.11484283953905106,
				-0.0017011911841109395,
				-0.010079067200422287,
				0.9933310747146606
			],
			"scale":[
				0.9999998807907104,
				0.9999999403953552,
				0.9999999403953552
			],
			"translation":[
				-8.847564458847046e-09,
				0.03855933994054794,
				-6.868503987789154e-09
			]
		},
		{
			"children":[
				26
			],
			"name":"Bone1.R",
			"rotation":[
				0.003357968060299754,
				0.733840823173523,
				0.013897757977247238,
				0.6791710257530212
			],
			"scale":[
				1,
				0.9999999403953552,
				0.9999999403953552
			],
			"translation":[
				-6.28642737865448e-09,
				0.035845644772052765,
				-2.7939677238464355e-09
			]
		},
		{
			"children":[
				27
			],
			"name":"Bone01.R",
			"rotation":[
				0.0644802376627922,
				-0.2447558045387268,
				-0.26600581407546997,
				0.9301493763923645
			],
			"scale":[
				0.9999999403953552,
				0.9999999403953552,
				0.9999999403953552
			],
			"translation":[
				0,
				0.06952697783708572,
				-3.725290298461914e-09
			]
		},
		{
			"name":"Bone6.R",
			"rotation":[
				0.07988470047712326,
				0.0016274937661364675,
				0.07170189917087555,
				0.9942206740379333
			],
			"scale":[
				0.9999999403953552,
				1,
				0.9999999403953552
			],
			"translation":[
				-1.210719347000122e-08,
				0.023884622380137444,
				-7.334165275096893e-09
			]
		},
		{
			"children":[
				29
			],
			"name":"Bone5.R",
			"rotation":[
				-0.06003956124186516,
				-0.00012869518832303584,
				-0.011909158900380135,
				0.9981250166893005
			],
			"scale":[
				0.9999999403953552,
				0.9999999403953552,
				1
			],
			"translation":[
				4.423782229423523e-09,
				0.030328018590807915,
				-1.7345882952213287e-08
			]
		},
		{
			"children":[
				30
			],
			"name":"Bone4.R",
			"rotation":[
				-0.047179900109767914,
				0.5649203658103943,
				0.05987381935119629,
				0.8216168284416199
			],
			"scale":[
				1.0000001192092896,
				1,
				1.0000001192092896
			],
			"translation":[
				2.0489096641540527e-08,
				0.1083112508058548,
				0
			]
		},
		{
			"children":[
				31
			],
			"name":"Bone04.R",
			"rotation":[
				0.028476454317569733,
				-0.032766278833150864,
				-0.12233605235815048,
				0.9915388822555542
			],
			"scale":[
				0.9999997615814209,
				0.9999998211860657,
				0.9999998807907104
			],
			"translation":[
				0,
				0.06952697783708572,
				-3.725290298461914e-09
			]
		},
		{
			"name":"Bone9.R",
			"rotation":[
				0.05200093984603882,
				-0.0019132110755890608,
				0.11491093784570694,
				0.9920119643211365
			],
			"scale":[
				1,
				0.9999998211860657,
				1
			],
			"translation":[
				1.862645149230957e-09,
				0.02665208838880062,
				-6.984919309616089e-10
			]
		},
		{
			"children":[
				33
			],
			"name":"Bone8.R",
			"rotation":[
				-0.017536228522658348,
				-0.000820788205601275,
				-0.01026514358818531,
				0.9997932314872742
			],
			"scale":[
				0.9999999403953552,
				0.9999998211860657,
				0.9999998807907104
			],
			"translation":[
				3.026798367500305e-09,
				0.03843459486961365,
				1.548323780298233e-08
			]
		},
		{
			"children":[
				34
			],
			"name":"Bone7.R",
			"rotation":[
				-0.02000545710325241,
				-0.5790983438491821,
				-0.0038692913949489594,
				0.8150030374526978
			],
			"translation":[
				4.6566128730773926e-09,
				0.10644381493330002,
				2.2351741790771484e-08
			]
		},
		{
			"children":[
				35
			],
			"name":"Bone07.R",
			"rotation":[
				-0.00040586196701042354,
				0.9260700941085815,
				-0.02012823149561882,
				0.3768140971660614
			],
			"scale":[
				1,
				1.0000001192092896,
				0.9999999403953552
			],
			"translation":[
				0,
				0.06952697783708572,
				-3.725290298461914e-09
			]
		},
		{
			"name":"Bone12.R",
			"rotation":[
				0.015082837082445621,
				-0.002663976978510618,
				0.041933126747608185,
				0.9990030527114868
			],
			"scale":[
				0.9999999403953552,
				0.9999999403953552,
				0.9999998807907104
			],
			"translation":[
				1.1175870895385742e-08,
				0.02604193426668644,
				3.1082890927791595e-08
			]
		},
		{
			"children":[
				37
			],
			"name":"Bone11.R",
			"rotation":[
				0.06235950067639351,
				0.0018650993006303906,
				-0.0064159901812672615,
				0.9980313777923584
			],
			"translation":[
				-5.587935447692871e-09,
				0.02889183536171913,
				-2.6891939342021942e-08
			]
		},
		{
			"children":[
				38
			],
			"name":"Bone10.R",
			"rotation":[
				0.027952061966061592,
				0.8373032808303833,
				0.010446161963045597,
				0.5459238290786743
			],
			"scale":[
				0.9999999403953552,
				1.0000001192092896,
				1
			],
			"translation":[
				0,
				0.10599411278963089,
				-2.60770320892334e-08
			]
		},
		{
			"children":[
				39
			],
			"name":"Bone010.R",
			"rotation":[
				-0.024777144193649292,
				-0.4127170443534851,
				0.10590941458940506,
				0.9043416976928711
			],
			"scale":[
				0.9999998807907104,
				0.9999999403953552,
				0.9999998807907104
			],
			"translation":[
				0,
				0.06952697783708572,
				-3.725290298461914e-09
			]
		},
		{
			"name":"Bone15.R",
			"rotation":[
				0.06505923718214035,
				-0.002564178081229329,
				0.02673156186938286,
				0.9975200295448303
			],
			"scale":[
				0.9999999403953552,
				1.0000001192092896,
				1.0000001192092896
			],
			"translation":[
				-1.862645149230957e-09,
				0.020160358399152756,
				-9.42964106798172e-09
			]
		},
		{
			"children":[
				41
			],
			"name":"Bone14.R",
			"rotation":[
				0.09305397421121597,
				-0.002310734009370208,
				0.008219604380428791,
				0.9956244230270386
			],
			"scale":[
				1,
				0.9999999403953552,
				0.9999997615814209
			],
			"translation":[
				-1.862645149230957e-09,
				0.02487943321466446,
				0
			]
		},
		{
			"children":[
				42
			],
			"name":"Bone13.R",
			"rotation":[
				0.011143163777887821,
				0.783266007900238,
				0.033144913613796234,
				0.6207025051116943
			],
			"scale":[
				1,
				0.9999998807907104,
				1
			],
			"translation":[
				-1.3969838619232178e-08,
				0.09898165613412857,
				-6.51925802230835e-09
			]
		},
		{
			"children":[
				43
			],
			"name":"Bone013.R",
			"rotation":[
				-0.04778933525085449,
				-0.32280799746513367,
				0.19881543517112732,
				0.9241123795509338
			],
			"scale":[
				0.9999999403953552,
				0.9999999403953552,
				0.9999999403953552
			],
			"translation":[
				0,
				0.06952697783708572,
				-3.725290298461914e-09
			]
		},
		{
			"children":[
				28,
				32,
				36,
				40,
				44
			],
			"name":"Bone",
			"rotation":[
				-0.16227349638938904,
				-0.6804846525192261,
				0.696165919303894,
				0.16112402081489563
			],
			"scale":[
				1,
				0.9999997615814209,
				1.0000001192092896
			],
			"translation":[
				-8.192728273570538e-09,
				0.019816821441054344,
				1.3154931366443634e-08
			]
		},
		{
			"children":[
				45
			],
			"name":"BoneR.R",
			"rotation":[
				-0.9999102354049683,
				-0.007151409052312374,
				-0.0033555058762431145,
				0.01082609687000513
			],
			"scale":[
				1.0000001192092896,
				1.000000238418579,
				1.0000001192092896
			],
			"translation":[
				0.2037208378314972,
				0.18692918121814728,
				-0.012276852503418922
			]
		},
		{
			"children":[
				24,
				46
			],
			"name":"Armature.001",
			"rotation":[
				0.8563602566719055,
				0.00903567485511303,
				0.5162719488143921,
				0.005363862495869398
			],
			"scale":[
				137.41224670410156,
				126.86431121826172,
				137.416748046875
			],
			"translation":[
				-0.9154086112976074,
				26.44293785095215,
				-66.0567398071289
			]
		},
		{
			"camera":0,
			"name":"Camera",
			"rotation":[
				-0.7071068286895752,
				0,
				0,
				0.7071068286895752
			],
			"translation":[
				49.756656646728516,
				0,
				-49.42713165283203
			]
		}
	],
	"cameras":[
		{
			"name":"Camera",
			"perspective":{
				"aspectRatio":1.7777777777777777,
				"yfov":0.4577978331787289,
				"zfar":1000,
				"znear":0.10000000149011612
			},
			"type":"perspective"
		}
	],
	"materials":[
		{
			"doubleSided":true,
			"name":"skin.L",
			"pbrMetallicRoughness":{
				"baseColorTexture":{
					"index":0
				},
				"metallicFactor":0.2,
				"roughnessFactor":0.5
			}
		},
		{
			"doubleSided":true,
			"name":"skin",
			"pbrMetallicRoughness":{
				"baseColorTexture":{
					"index":1
				},
				"metallicFactor":0.2,
				"roughnessFactor":0.5
			}
		}
	],
	"meshes":[
		{
			"name":"Cube.017",
			"primitives":[
				{
					"attributes":{
						"COLOR_0":0,
						"POSITION":1,
						"NORMAL":2,
						"TEXCOORD_0":3
					},
					"indices":4,
					"material":0
				}
			]
		},
		{
			"name":"Cube.001",
			"primitives":[
				{
					"attributes":{
						"COLOR_0":5,
						"POSITION":6,
						"NORMAL":7,
						"TEXCOORD_0":8
					},
					"indices":4,
					"material":1
				}
			]
		}
	],
	"textures":[
		{
			"extensions":{
				"EXT_texture_webp":{
					"source":0
				}
			},
			"sampler":0,
			"source":1
		},
		{
			"extensions":{
				"EXT_texture_webp":{
					"source":0
				}
			},
			"sampler":0,
			"source":1
		}
	],
	"images":[
		{
			"mimeType":"image/webp",
			"name":"HAND_C",
			"uri":"/textures/HAND_C.webp"
		},
		{
			"mimeType":"image/jpeg",
			"name":"HAND_C",
			"uri":"/textures/HAND_C.jpeg"
		}
	],
	"skins":[
		{
			"inverseBindMatrices":9,
			"joints":[
				22,
				21,
				4,
				3,
				2,
				1,
				8,
				7,
				6,
				5,
				12,
				11,
				10,
				9,
				16,
				15,
				14,
				13,
				20,
				19,
				18,
				17
			],
			"name":"Armature"
		},
		{
			"inverseBindMatrices":10,
			"joints":[
				46,
				45,
				28,
				27,
				26,
				25,
				32,
				31,
				30,
				29,
				36,
				35,
				34,
				33,
				40,
				39,
				38,
				37,
				44,
				43,
				42,
				41
			],
			"name":"Armature.001"
		}
	],
	"accessors":[
		{
			"bufferView":0,
			"componentType":5123,
			"count":690,
			"normalized":true,
			"type":"VEC4"
		},
		{
			"bufferView":1,
			"componentType":5126,
			"count":690,
			"max":[
				-0.624316394329071,
				1.4683167934417725,
				0.19422295689582825
			],
			"min":[
				-0.8818346261978149,
				1.4196670055389404,
				0.05440209060907364
			],
			"type":"VEC3"
		},
		{
			"bufferView":2,
			"componentType":5126,
			"count":690,
			"type":"VEC3"
		},
		{
			"bufferView":3,
			"componentType":5126,
			"count":690,
			"type":"VEC2"
		},
		{
			"bufferView":4,
			"componentType":5123,
			"count":3108,
			"type":"SCALAR"
		},
		{
			"bufferView":5,
			"componentType":5123,
			"count":690,
			"normalized":true,
			"type":"VEC4"
		},
		{
			"bufferView":6,
			"componentType":5126,
			"count":690,
			"max":[
				-0.624316394329071,
				1.4683167934417725,
				0.19422295689582825
			],
			"min":[
				-0.8818346261978149,
				1.4196670055389404,
				0.05440209060907364
			],
			"type":"VEC3"
		},
		{
			"bufferView":7,
			"componentType":5126,
			"count":690,
			"type":"VEC3"
		},
		{
			"bufferView":8,
			"componentType":5126,
			"count":690,
			"type":"VEC2"
		},
		{
			"bufferView":9,
			"componentType":5126,
			"count":22,
			"type":"MAT4"
		},
		{
			"bufferView":10,
			"componentType":5126,
			"count":22,
			"type":"MAT4"
		}
	],
	"bufferViews":[
		{
			"buffer":0,
			"byteLength":5520,
			"byteOffset":0,
			"target":34962
		},
		{
			"buffer":0,
			"byteLength":8280,
			"byteOffset":5520,
			"target":34962
		},
		{
			"buffer":0,
			"byteLength":8280,
			"byteOffset":13800,
			"target":34962
		},
		{
			"buffer":0,
			"byteLength":5520,
			"byteOffset":22080,
			"target":34962
		},
		{
			"buffer":0,
			"byteLength":6216,
			"byteOffset":27600,
			"target":34963
		},
		{
			"buffer":0,
			"byteLength":5520,
			"byteOffset":33816,
			"target":34962
		},
		{
			"buffer":0,
			"byteLength":8280,
			"byteOffset":39336,
			"target":34962
		},
		{
			"buffer":0,
			"byteLength":8280,
			"byteOffset":47616,
			"target":34962
		},
		{
			"buffer":0,
			"byteLength":5520,
			"byteOffset":55896,
			"target":34962
		},
		{
			"buffer":0,
			"byteLength":1408,
			"byteOffset":61416
		},
		{
			"buffer":0,
			"byteLength":1408,
			"byteOffset":62824
		}
	],
	"samplers":[
		{
			"magFilter":9729,
			"minFilter":9987
		}
	],
	"buffers":[
		{
			"byteLength":64232,
			"uri":"scene.bin"
		}
	]
}
