{
	"asset":{
		"generator":"Khronos glTF Blender I/O v4.0.44",
		"version":"2.0"
	},
	"extensionsUsed":[
		"EXT_texture_webp"
	],
	"scene":0,
	"scenes":[
		{
			"name":"Scene",
			"nodes":[
				23,
				47
			]
		}
	],
	"nodes":[
		{
			"mesh":0,
			"name":"hand",
			"rotation":[
				0,
				-0.7071066498756409,
				0,
				0.70710688829422
			],
			"scale":[
				-1,
				-1,
				-1
			],
			"translation":[
				0.07091447710990906,
				1.6109801530838013,
				-0.6299409866333008
			]
		},
		{
			"name":"Bone3.R",
			"rotation":[
				-0.168745756149292,
				0.002376100281253457,
				-0.0025859444867819548,
				0.9856533408164978
			],
			"scale":[
				1,
				1,
				1.0000001192092896
			],
			"translation":[
				1.5832483768463135e-08,
				0.031653400510549545,
				-3.306195139884949e-08
			]
		},
		{
			"children":[
				1
			],
			"name":"Bone2.R",
			"rotation":[
				0.11484286934137344,
				-0.0017011931631714106,
				-0.010079064406454563,
				0.9933310747146606
			],
			"scale":[
				1,
				1,
				0.9999999403953552
			],
			"translation":[
				-8.89413058757782e-08,
				0.038559332489967346,
				9.313225746154785e-09
			]
		},
		{
			"children":[
				2
			],
			"name":"Bone1.R",
			"rotation":[
				0.003357978304848075,
				0.733840823173523,
				0.013897770084440708,
				0.6791710257530212
			],
			"scale":[
				0.9999998807907104,
				1.0000001192092896,
				1
			],
			"translation":[
				2.9802322387695312e-08,
				0.03584567829966545,
				-6.414484232664108e-08
			]
		},
		{
			"children":[
				3
			],
			"name":"Bone01.R",
			"rotation":[
				0.0644802376627922,
				-0.2447558045387268,
				-0.2660057842731476,
				0.9301493763923645
			],
			"scale":[
				1,
				0.9999999403953552,
				1
			],
			"translation":[
				1.043081283569336e-07,
				0.06952695548534393,
				-1.4901161193847656e-08
			]
		},
		{
			"name":"Bone6.R",
			"rotation":[
				0.07988470792770386,
				0.001627486664801836,
				0.07170190662145615,
				0.9942206144332886
			],
			"scale":[
				1,
				0.9999999403953552,
				1
			],
			"translation":[
				1.862645149230957e-08,
				0.02388465590775013,
				-3.725290298461914e-09
			]
		},
		{
			"children":[
				5
			],
			"name":"Bone5.R",
			"rotation":[
				-0.060039546340703964,
				-0.00012869120109826326,
				-0.011909155175089836,
				0.9981250166893005
			],
			"scale":[
				0.9999999403953552,
				0.9999999403953552,
				0.9999998807907104
			],
			"translation":[
				8.288770914077759e-08,
				0.030327986925840378,
				-9.313225746154785e-09
			]
		},
		{
			"children":[
				6
			],
			"name":"Bone4.R",
			"rotation":[
				-0.04717990383505821,
				0.5649203658103943,
				0.05987381190061569,
				0.8216168284416199
			],
			"scale":[
				1.0000001192092896,
				1.0000001192092896,
				1
			],
			"translation":[
				-7.450580596923828e-08,
				0.10831131041049957,
				7.450580596923828e-08
			]
		},
		{
			"children":[
				7
			],
			"name":"Bone04.R",
			"rotation":[
				0.02847645804286003,
				-0.03276629373431206,
				-0.12233605980873108,
				0.9915388822555542
			],
			"scale":[
				0.9999998807907104,
				0.9999998807907104,
				0.9999999403953552
			],
			"translation":[
				1.043081283569336e-07,
				0.06952695548534393,
				-1.4901161193847656e-08
			]
		},
		{
			"name":"Bone9.R",
			"rotation":[
				0.05200091004371643,
				-0.001913208980113268,
				0.11491094529628754,
				0.9920119643211365
			],
			"scale":[
				1,
				0.9999998211860657,
				0.9999999403953552
			],
			"translation":[
				-4.563480615615845e-08,
				0.026652097702026367,
				-4.7963112592697144e-08
			]
		},
		{
			"children":[
				9
			],
			"name":"Bone8.R",
			"rotation":[
				-0.01753622107207775,
				-0.0008207851788029075,
				-0.010265144519507885,
				0.9997932314872742
			],
			"scale":[
				0.9999998807907104,
				0.9999998211860657,
				0.9999998807907104
			],
			"translation":[
				7.078051567077637e-08,
				0.03843456879258156,
				3.798049874603748e-09
			]
		},
		{
			"children":[
				10
			],
			"name":"Bone7.R",
			"rotation":[
				-0.02000543847680092,
				-0.5790983438491821,
				-0.003869267413392663,
				0.8150030374526978
			],
			"scale":[
				1,
				0.9999999403953552,
				1
			],
			"translation":[
				7.450580596923828e-09,
				0.10644382238388062,
				-6.146728992462158e-08
			]
		},
		{
			"children":[
				11
			],
			"name":"Bone07.R",
			"rotation":[
				-0.00040587203693576157,
				0.9260700941085815,
				-0.02012823522090912,
				0.3768140971660614
			],
			"scale":[
				1,
				1.000000238418579,
				1.0000001192092896
			],
			"translation":[
				1.043081283569336e-07,
				0.06952695548534393,
				-1.4901161193847656e-08
			]
		},
		{
			"name":"Bone12.R",
			"rotation":[
				0.015082846395671368,
				-0.0026639816351234913,
				0.04193313419818878,
				0.9990030527114868
			],
			"scale":[
				1,
				1.0000001192092896,
				0.9999998807907104
			],
			"translation":[
				-1.825392246246338e-07,
				0.026041947305202484,
				0
			]
		},
		{
			"children":[
				13
			],
			"name":"Bone11.R",
			"rotation":[
				0.062359485775232315,
				0.0018650988349691033,
				-0.006415988318622112,
				0.9980313777923584
			],
			"scale":[
				0.9999999403953552,
				0.9999998807907104,
				1
			],
			"translation":[
				-6.891787052154541e-08,
				0.028891805559396744,
				-2.421438694000244e-08
			]
		},
		{
			"children":[
				14
			],
			"name":"Bone10.R",
			"rotation":[
				0.027952060103416443,
				0.8373032808303833,
				0.010446173138916492,
				0.5459238290786743
			],
			"scale":[
				0.9999999403953552,
				1,
				1
			],
			"translation":[
				2.60770320892334e-08,
				0.10599413514137268,
				1.0291114449501038e-07
			]
		},
		{
			"children":[
				15
			],
			"name":"Bone010.R",
			"rotation":[
				-0.02477714978158474,
				-0.4127170443534851,
				0.10590939968824387,
				0.9043416976928711
			],
			"scale":[
				1.0000001192092896,
				1,
				0.9999998807907104
			],
			"translation":[
				1.043081283569336e-07,
				0.06952695548534393,
				-1.4901161193847656e-08
			]
		},
		{
			"name":"Bone15.R",
			"rotation":[
				0.06505924463272095,
				-0.002564180875197053,
				0.026731563732028008,
				0.9975199699401855
			],
			"scale":[
				1,
				1.0000001192092896,
				1
			],
			"translation":[
				1.0384246706962585e-07,
				0.020160403102636337,
				1.862645149230957e-08
			]
		},
		{
			"children":[
				17
			],
			"name":"Bone14.R",
			"rotation":[
				0.09305397421121597,
				-0.0023107335437089205,
				0.008219604380428791,
				0.9956244826316833
			],
			"scale":[
				1,
				1,
				0.9999999403953552
			],
			"translation":[
				1.1641532182693481e-08,
				0.024879414588212967,
				-5.3551048040390015e-09
			]
		},
		{
			"children":[
				18
			],
			"name":"Bone13.R",
			"rotation":[
				0.011143151670694351,
				0.783266007900238,
				0.03314489871263504,
				0.6207025647163391
			],
			"scale":[
				1,
				0.9999999403953552,
				1
			],
			"translation":[
				-1.1175870895385742e-08,
				0.09898167103528976,
				-1.862645149230957e-07
			]
		},
		{
			"children":[
				19
			],
			"name":"Bone013.R",
			"rotation":[
				-0.04778933525085449,
				-0.32280802726745605,
				0.19881543517112732,
				0.9241122603416443
			],
			"scale":[
				1,
				1.0000001192092896,
				1
			],
			"translation":[
				1.043081283569336e-07,
				0.06952695548534393,
				-1.4901161193847656e-08
			]
		},
		{
			"children":[
				4,
				8,
				12,
				16,
				20
			],
			"name":"Bone",
			"rotation":[
				-0.16227351129055023,
				-0.6804846525192261,
				0.696165919303894,
				0.1611240655183792
			],
			"scale":[
				0.9999999403953552,
				0.9999997615814209,
				1
			],
			"translation":[
				1.4901161193847656e-08,
				0.019816691055893898,
				-3.166496753692627e-08
			]
		},
		{
			"children":[
				21
			],
			"name":"BoneR.R",
			"rotation":[
				-0.9999102354049683,
				-0.007151407655328512,
				-0.0033555133268237114,
				0.01082609687000513
			],
			"scale":[
				1,
				1.0000001192092896,
				0.9999999403953552
			],
			"translation":[
				0.2037208080291748,
				0.18692921102046967,
				-0.012276872992515564
			]
		},
		{
			"children":[
				0,
				22
			],
			"name":"Armature",
			"rotation":[
				-0.009413927793502808,
				0.5300382375717163,
				0.043242886662483215,
				0.8468180894851685
			],
			"scale":[
				-1,
				-0.9999999403953552,
				-1
			],
			"translation":[
				0.3673818111419678,
				-1.6109799146652222,
				-0.23922890424728394
			]
		},
		{
			"mesh":1,
			"name":"hand.001",
			"rotation":[
				0,
				-0.7071066498756409,
				0,
				0.70710688829422
			],
			"scale":[
				-0.9999999403953552,
				-1,
				-1
			],
			"translation":[
				0.07091446220874786,
				1.6109800338745117,
				-0.6299410462379456
			]
		},
		{
			"name":"Bone3.R",
			"rotation":[
				-0.1687457412481308,
				0.002376105636358261,
				-0.0025859407614916563,
				0.9856533408164978
			],
			"scale":[
				1,
				1,
				1.0000001192092896
			],
			"translation":[
				-1.46450474858284e-07,
				0.03165339305996895,
				1.1175870895385742e-08
			]
		},
		{
			"children":[
				25
			],
			"name":"Bone2.R",
			"rotation":[
				0.11484279483556747,
				-0.001701188855804503,
				-0.010079067200422287,
				0.9933311343193054
			],
			"scale":[
				0.9999999403953552,
				0.9999999403953552,
				0.9999999403953552
			],
			"translation":[
				-2.6542693376541138e-08,
				0.03855934739112854,
				2.9802322387695312e-08
			]
		},
		{
			"children":[
				26
			],
			"name":"Bone1.R",
			"rotation":[
				0.003357986221089959,
				0.733840823173523,
				0.013897765427827835,
				0.6791710257530212
			],
			"scale":[
				1,
				1.0000001192092896,
				1
			],
			"translation":[
				2.9802322387695312e-08,
				0.03584566339850426,
				5.029141902923584e-08
			]
		},
		{
			"children":[
				27
			],
			"name":"Bone01.R",
			"rotation":[
				0.06448022276163101,
				-0.24475577473640442,
				-0.2660057544708252,
				0.9301493763923645
			],
			"scale":[
				1,
				1,
				1.0000001192092896
			],
			"translation":[
				6.705522537231445e-08,
				0.06952699273824692,
				-1.7508864402770996e-07
			]
		},
		{
			"name":"Bone6.R",
			"rotation":[
				0.07988474518060684,
				0.001627492718398571,
				0.07170190662145615,
				0.9942206144332886
			],
			"scale":[
				1,
				1,
				0.9999999403953552
			],
			"translation":[
				-9.324867278337479e-08,
				0.023884665220975876,
				7.450580596923828e-09
			]
		},
		{
			"children":[
				29
			],
			"name":"Bone5.R",
			"rotation":[
				-0.06003955006599426,
				-0.00012869462079834193,
				-0.011909160763025284,
				0.9981249570846558
			],
			"scale":[
				0.9999998807907104,
				0.9999998807907104,
				1
			],
			"translation":[
				5.727633833885193e-08,
				0.030328024178743362,
				-3.725290298461914e-09
			]
		},
		{
			"children":[
				30
			],
			"name":"Bone4.R",
			"rotation":[
				-0.047179896384477615,
				0.5649203658103943,
				0.05987381190061569,
				0.8216168284416199
			],
			"translation":[
				-7.450580596923828e-09,
				0.108311228454113,
				1.0803341865539551e-07
			]
		},
		{
			"children":[
				31
			],
			"name":"Bone04.R",
			"rotation":[
				0.02847643941640854,
				-0.03276629000902176,
				-0.1223360225558281,
				0.9915388822555542
			],
			"scale":[
				0.9999998807907104,
				1,
				1.0000001192092896
			],
			"translation":[
				6.705522537231445e-08,
				0.06952699273824692,
				-1.7508864402770996e-07
			]
		},
		{
			"name":"Bone9.R",
			"rotation":[
				0.05200091749429703,
				-0.0019132092129439116,
				0.11491093039512634,
				0.9920119643211365
			],
			"scale":[
				1.0000001192092896,
				0.9999998807907104,
				1
			],
			"translation":[
				-8.265487849712372e-08,
				0.026652086526155472,
				-3.725290298461914e-09
			]
		},
		{
			"children":[
				33
			],
			"name":"Bone8.R",
			"rotation":[
				-0.017536217346787453,
				-0.0008207897190004587,
				-0.010265141725540161,
				0.9997932314872742
			],
			"scale":[
				0.9999999403953552,
				1,
				0.9999999403953552
			],
			"translation":[
				1.971493475139141e-07,
				0.03843456506729126,
				-7.450580596923828e-09
			]
		},
		{
			"children":[
				34
			],
			"name":"Bone7.R",
			"rotation":[
				-0.02000545710325241,
				-0.5790983438491821,
				-0.0038692678790539503,
				0.8150030374526978
			],
			"scale":[
				1,
				0.9999998807907104,
				1
			],
			"translation":[
				2.2351741790771484e-08,
				0.10644380003213882,
				-1.5273690223693848e-07
			]
		},
		{
			"children":[
				35
			],
			"name":"Bone07.R",
			"rotation":[
				-0.00040587253170087934,
				0.9260701537132263,
				-0.020128238946199417,
				0.3768140971660614
			],
			"scale":[
				1,
				1.000000238418579,
				1.0000001192092896
			],
			"translation":[
				6.705522537231445e-08,
				0.06952699273824692,
				-1.7508864402770996e-07
			]
		},
		{
			"name":"Bone12.R",
			"rotation":[
				0.015082836151123047,
				-0.002663976512849331,
				0.041933126747608185,
				0.9990030527114868
			],
			"scale":[
				0.9999999403953552,
				1,
				0.9999998807907104
			],
			"translation":[
				-1.6400008462369442e-07,
				0.02604195475578308,
				-9.313225746154785e-09
			]
		},
		{
			"children":[
				37
			],
			"name":"Bone11.R",
			"rotation":[
				0.06235950067639351,
				0.0018650987185537815,
				-0.006415990646928549,
				0.9980313777923584
			],
			"scale":[
				1,
				0.9999999403953552,
				1
			],
			"translation":[
				1.2957025319337845e-07,
				0.028891801834106445,
				0
			]
		},
		{
			"children":[
				38
			],
			"name":"Bone10.R",
			"rotation":[
				0.02795206569135189,
				0.8373032808303833,
				0.010446171276271343,
				0.5459238290786743
			],
			"scale":[
				0.9999999403953552,
				0.9999999403953552,
				0.9999999403953552
			],
			"translation":[
				1.1548399925231934e-07,
				0.1059940978884697,
				1.30385160446167e-07
			]
		},
		{
			"children":[
				39
			],
			"name":"Bone010.R",
			"rotation":[
				-0.024777164682745934,
				-0.4127170145511627,
				0.10590941458940506,
				0.9043416976928711
			],
			"scale":[
				1.0000001192092896,
				1,
				1
			],
			"translation":[
				6.705522537231445e-08,
				0.06952699273824692,
				-1.7508864402770996e-07
			]
		},
		{
			"name":"Bone15.R",
			"rotation":[
				0.06505924463272095,
				-0.0025641771499067545,
				0.026731567457318306,
				0.9975200295448303
			],
			"scale":[
				1,
				1.0000001192092896,
				1
			],
			"translation":[
				-2.0838342607021332e-08,
				0.020160367712378502,
				1.862645149230957e-09
			]
		},
		{
			"children":[
				41
			],
			"name":"Bone14.R",
			"rotation":[
				0.09305395931005478,
				-0.0023107347078621387,
				0.008219604380428791,
				0.9956244826316833
			],
			"scale":[
				0.9999999403953552,
				1,
				0.9999999403953552
			],
			"translation":[
				-7.904600352048874e-08,
				0.02487945556640625,
				-7.450580596923828e-09
			]
		},
		{
			"children":[
				42
			],
			"name":"Bone13.R",
			"rotation":[
				0.011143147014081478,
				0.783266007900238,
				0.03314489871263504,
				0.6207025051116943
			],
			"scale":[
				1,
				0.9999998807907104,
				1
			],
			"translation":[
				-2.60770320892334e-08,
				0.09898168593645096,
				2.9336661100387573e-08
			]
		},
		{
			"children":[
				43
			],
			"name":"Bone013.R",
			"rotation":[
				-0.04778933897614479,
				-0.32280808687210083,
				0.1988154500722885,
				0.9241122603416443
			],
			"scale":[
				0.9999999403953552,
				1.0000001192092896,
				1
			],
			"translation":[
				6.705522537231445e-08,
				0.06952699273824692,
				-1.7508864402770996e-07
			]
		},
		{
			"children":[
				28,
				32,
				36,
				40,
				44
			],
			"name":"Bone",
			"rotation":[
				-0.16227351129055023,
				-0.6804846525192261,
				0.696165919303894,
				0.16112405061721802
			],
			"scale":[
				1,
				0.9999997615814209,
				1
			],
			"translation":[
				-8.381903171539307e-09,
				0.019816722720861435,
				3.3527612686157227e-08
			]
		},
		{
			"children":[
				45
			],
			"name":"BoneR.R",
			"rotation":[
				-0.9999101758003235,
				-0.007151409517973661,
				-0.003355503547936678,
				0.01082609687000513
			],
			"scale":[
				1.0000001192092896,
				1.0000001192092896,
				1
			],
			"translation":[
				0.2037208080291748,
				0.1869291365146637,
				-0.012276856228709221
			]
		},
		{
			"children":[
				24,
				46
			],
			"name":"Armature.001",
			"rotation":[
				0.8563602566719055,
				0.00903567485511303,
				0.5162719488143921,
				0.005363862495869398
			],
			"translation":[
				-0.34736430644989014,
				-1.6109799146652222,
				-0.24437445402145386
			]
		}
	],
	"materials":[
		{
			"doubleSided":true,
			"name":"skin.L",
			"pbrMetallicRoughness":{
				"baseColorTexture":{
					"index":0
				},
				"metallicFactor":0,
				"roughnessFactor":0.5
			}
		},
		{
			"doubleSided":true,
			"name":"skin",
			"pbrMetallicRoughness":{
				"baseColorTexture":{
					"index":1
				},
				"metallicFactor":0,
				"roughnessFactor":0.5
			}
		}
	],
	"meshes":[
		{
			"name":"Cube.017",
			"primitives":[
				{
					"attributes":{
						"COLOR_0":0,
						"POSITION":1,
						"NORMAL":2,
						"TEXCOORD_0":3
					},
					"indices":4,
					"material":0
				}
			]
		},
		{
			"name":"Cube.001",
			"primitives":[
				{
					"attributes":{
						"COLOR_0":5,
						"POSITION":6,
						"NORMAL":7,
						"TEXCOORD_0":8
					},
					"indices":4,
					"material":1
				}
			]
		}
	],
	"textures":[
		{
			"extensions":{
				"EXT_texture_webp":{
					"source":0
				}
			},
			"sampler":0,
			"source":1
		},
		{
			"extensions":{
				"EXT_texture_webp":{
					"source":0
				}
			},
			"sampler":0,
			"source":1
		}
	],
	"images":[
		{
			"mimeType":"image/webp",
			"name":"HAND_C",
			"uri":"Textures/HAND_C.webp"
		},
		{
			"mimeType":"image/jpeg",
			"name":"HAND_C",
			"uri":"Textures/HAND_C.jpg"
		}
	],
	"skins":[
		{
			"inverseBindMatrices":9,
			"joints":[
				22,
				21,
				4,
				3,
				2,
				1,
				8,
				7,
				6,
				5,
				12,
				11,
				10,
				9,
				16,
				15,
				14,
				13,
				20,
				19,
				18,
				17
			],
			"name":"Armature"
		},
		{
			"inverseBindMatrices":10,
			"joints":[
				46,
				45,
				28,
				27,
				26,
				25,
				32,
				31,
				30,
				29,
				36,
				35,
				34,
				33,
				40,
				39,
				38,
				37,
				44,
				43,
				42,
				41
			],
			"name":"Armature.001"
		}
	],
	"accessors":[
		{
			"bufferView":0,
			"componentType":5123,
			"count":690,
			"normalized":true,
			"type":"VEC4"
		},
		{
			"bufferView":1,
			"componentType":5126,
			"count":690,
			"max":[
				-0.624316394329071,
				1.4683167934417725,
				0.19422295689582825
			],
			"min":[
				-0.8818346261978149,
				1.4196670055389404,
				0.05440209060907364
			],
			"type":"VEC3"
		},
		{
			"bufferView":2,
			"componentType":5126,
			"count":690,
			"type":"VEC3"
		},
		{
			"bufferView":3,
			"componentType":5126,
			"count":690,
			"type":"VEC2"
		},
		{
			"bufferView":4,
			"componentType":5123,
			"count":3108,
			"type":"SCALAR"
		},
		{
			"bufferView":5,
			"componentType":5123,
			"count":690,
			"normalized":true,
			"type":"VEC4"
		},
		{
			"bufferView":6,
			"componentType":5126,
			"count":690,
			"max":[
				-0.624316394329071,
				1.4683167934417725,
				0.19422295689582825
			],
			"min":[
				-0.8818346261978149,
				1.4196670055389404,
				0.05440209060907364
			],
			"type":"VEC3"
		},
		{
			"bufferView":7,
			"componentType":5126,
			"count":690,
			"type":"VEC3"
		},
		{
			"bufferView":8,
			"componentType":5126,
			"count":690,
			"type":"VEC2"
		},
		{
			"bufferView":9,
			"componentType":5126,
			"count":22,
			"type":"MAT4"
		},
		{
			"bufferView":10,
			"componentType":5126,
			"count":22,
			"type":"MAT4"
		}
	],
	"bufferViews":[
		{
			"buffer":0,
			"byteLength":5520,
			"byteOffset":0,
			"target":34962
		},
		{
			"buffer":0,
			"byteLength":8280,
			"byteOffset":5520,
			"target":34962
		},
		{
			"buffer":0,
			"byteLength":8280,
			"byteOffset":13800,
			"target":34962
		},
		{
			"buffer":0,
			"byteLength":5520,
			"byteOffset":22080,
			"target":34962
		},
		{
			"buffer":0,
			"byteLength":6216,
			"byteOffset":27600,
			"target":34963
		},
		{
			"buffer":0,
			"byteLength":5520,
			"byteOffset":33816,
			"target":34962
		},
		{
			"buffer":0,
			"byteLength":8280,
			"byteOffset":39336,
			"target":34962
		},
		{
			"buffer":0,
			"byteLength":8280,
			"byteOffset":47616,
			"target":34962
		},
		{
			"buffer":0,
			"byteLength":5520,
			"byteOffset":55896,
			"target":34962
		},
		{
			"buffer":0,
			"byteLength":1408,
			"byteOffset":61416
		},
		{
			"buffer":0,
			"byteLength":1408,
			"byteOffset":62824
		}
	],
	"samplers":[
		{
			"magFilter":9729,
			"minFilter":9987
		}
	],
	"buffers":[
		{
			"byteLength":64232,
			"uri":"scene.bin"
		}
	]
}
